<svg width="22" height="21" viewBox="0 0 22 21" fill="none" xmlns="http://www.w3.org/2000/svg">
<path d="M14.71 6.78999C14.617 6.69626 14.5064 6.62187 14.3846 6.5711C14.2627 6.52033 14.132 6.49419 14 6.49419C13.868 6.49419 13.7373 6.52033 13.6154 6.5711C13.4936 6.62187 13.383 6.69626 13.29 6.78999L11 9.08999L8.70999 6.78999C8.52168 6.60168 8.26629 6.4959 7.99999 6.4959C7.73369 6.4959 7.47829 6.60168 7.28999 6.78999C7.10168 6.97829 6.9959 7.23369 6.9959 7.49999C6.9959 7.76629 7.10168 8.02168 7.28999 8.20999L9.58999 10.5L7.28999 12.79C7.19626 12.883 7.12187 12.9936 7.0711 13.1154C7.02033 13.2373 6.99419 13.368 6.99419 13.5C6.99419 13.632 7.02033 13.7627 7.0711 13.8846C7.12187 14.0064 7.19626 14.117 7.28999 14.21C7.38295 14.3037 7.49355 14.3781 7.61541 14.4289C7.73727 14.4796 7.86798 14.5058 7.99999 14.5058C8.132 14.5058 8.26271 14.4796 8.38456 14.4289C8.50642 14.3781 8.61702 14.3037 8.70999 14.21L11 11.91L13.29 14.21C13.383 14.3037 13.4936 14.3781 13.6154 14.4289C13.7373 14.4796 13.868 14.5058 14 14.5058C14.132 14.5058 14.2627 14.4796 14.3846 14.4289C14.5064 14.3781 14.617 14.3037 14.71 14.21C14.8037 14.117 14.8781 14.0064 14.9289 13.8846C14.9796 13.7627 15.0058 13.632 15.0058 13.5C15.0058 13.368 14.9796 13.2373 14.9289 13.1154C14.8781 12.9936 14.8037 12.883 14.71 12.79L12.41 10.5L14.71 8.20999C14.8037 8.11702 14.8781 8.00642 14.9289 7.88456C14.9796 7.76271 15.0058 7.632 15.0058 7.49999C15.0058 7.36798 14.9796 7.23727 14.9289 7.11541C14.8781 6.99355 14.8037 6.88295 14.71 6.78999ZM18.07 3.42999C17.1475 2.47489 16.0441 1.71306 14.824 1.18897C13.604 0.664884 12.2918 0.389021 10.964 0.377483C9.63621 0.365945 8.31941 0.618962 7.09045 1.12177C5.86148 1.62458 4.74497 2.36711 3.80604 3.30604C2.86711 4.24497 2.12458 5.36148 1.62177 6.59045C1.11896 7.81941 0.865945 9.13621 0.877483 10.464C0.889021 11.7918 1.16488 13.104 1.68897 14.324C2.21306 15.5441 2.97489 16.6475 3.92999 17.57C4.85246 18.5251 5.9559 19.2869 7.17594 19.811C8.39598 20.3351 9.70818 20.611 11.036 20.6225C12.3638 20.634 13.6806 20.381 14.9095 19.8782C16.1385 19.3754 17.255 18.6329 18.1939 17.6939C19.1329 16.755 19.8754 15.6385 20.3782 14.4095C20.881 13.1806 21.134 11.8638 21.1225 10.536C21.111 9.20818 20.8351 7.89598 20.311 6.67594C19.7869 5.4559 19.0251 4.35246 18.07 3.42999ZM16.66 16.16C15.352 17.4694 13.6305 18.2848 11.7888 18.4673C9.94704 18.6498 8.09899 18.188 6.55951 17.1608C5.02003 16.1335 3.88435 14.6042 3.34596 12.8335C2.80758 11.0627 2.89979 9.16013 3.6069 7.44977C4.31401 5.73941 5.59226 4.32714 7.22388 3.45355C8.8555 2.57996 10.7395 2.29912 12.555 2.65886C14.3705 3.0186 16.005 3.99668 17.1802 5.42645C18.3554 6.85622 18.9985 8.64923 19 10.5C19.0036 11.5513 18.7986 12.5928 18.3969 13.5644C17.9953 14.5359 17.4049 15.4181 16.66 16.16Z" fill="#D4D7DB"/>
</svg>
