<svg width="19" height="18" viewBox="0 0 19 18" fill="none" xmlns="http://www.w3.org/2000/svg">
<path d="M17.81 15.85L14.91 12.95C16 11.55 16.59 9.83999 16.59 8.03999C16.59 5.88999 15.75 3.87 14.23 2.35C11.1 -0.790005 5.99001 -0.790005 2.86 2.35C-0.279995 5.49 -0.279995 10.59 2.86 13.72C4.38 15.24 6.4 16.08 8.55 16.08C10.37 16.08 12.1 15.47 13.5 14.37L16.4 17.27C16.6 17.47 16.85 17.56 17.11 17.56C17.37 17.56 17.62 17.46 17.82 17.27C18.21 16.88 18.21 16.25 17.82 15.86L17.81 15.85ZM4.27 12.31C1.91 9.95 1.91 6.11999 4.27 3.76999C5.45 2.58999 7 1.99999 8.54 1.99999C10.08 1.99999 11.63 2.58999 12.81 3.76999C13.99 4.94999 14.58 6.42999 14.58 8.03999C14.58 9.64999 13.95 11.17 12.81 12.31C11.67 13.45 10.15 14.08 8.54 14.08C6.93 14.08 5.41 13.45 4.27 12.31Z" fill="#D4D7DB"/>
</svg>
